<svg xmlns="http://www.w3.org/2000/svg" viewBox="0 0 600 480"><defs><linearGradient id="metal" x1="0" x2="1" y1="0" y2=".8"><stop stop-color="#f8f8f5"/><stop offset=".27" stop-color="#a8afad"/><stop offset=".52" stop-color="#e0e3e0"/><stop offset="1" stop-color="#65706e"/></linearGradient><linearGradient id="dark" x1="0" x2="1"><stop stop-color="#1e2424"/><stop offset=".35" stop-color="#4e5654"/><stop offset="1" stop-color="#252b2b"/></linearGradient><linearGradient id="orange" x1="0" x2="1"><stop stop-color="#d6652e"/><stop offset=".45" stop-color="#f59665"/><stop offset="1" stop-color="#e07741"/></linearGradient><linearGradient id="paper" x1="0" x2="1"><stop stop-color="#e0e0d6"/><stop offset=".4" stop-color="#fcfcf5"/><stop offset="1" stop-color="#c4c8bf"/></linearGradient><filter id="blur"><feGaussianBlur stdDeviation="10"/></filter></defs><rect width="600" height="480" fill="#f1f1ef"/><ellipse cx="308" cy="384" rx="150" ry="16" fill="#252725" opacity=".16" filter="url(#blur)"/><path d="M236 298v51q0 21 21 21h87q22 0 22-21v-51" stroke="url(#metal)" stroke-width="20" fill="none"/><rect x="193" y="133" width="198" height="191" rx="25" fill="url(#dark)" stroke="#141d18" stroke-width="4"/><rect x="207" y="146" width="170" height="166" rx="17" fill="#697b79"/><rect x="219" y="158" width="41" height="41" rx="8" fill="url(#metal)" stroke="#8b9692" stroke-width="2"/><rect x="233" y="172" width="13" height="13" rx="2" fill="#faf4d8"/><rect x="270" y="158" width="41" height="41" rx="8" fill="url(#metal)" stroke="#8b9692" stroke-width="2"/><rect x="284" y="172" width="13" height="13" rx="2" fill="#faf4d8"/><rect x="321" y="158" width="41" height="41" rx="8" fill="url(#metal)" stroke="#8b9692" stroke-width="2"/><rect x="335" y="172" width="13" height="13" rx="2" fill="#faf4d8"/><rect x="219" y="209" width="41" height="41" rx="8" fill="url(#metal)" stroke="#8b9692" stroke-width="2"/><rect x="233" y="223" width="13" height="13" rx="2" fill="#faf4d8"/><rect x="270" y="209" width="41" height="41" rx="8" fill="url(#metal)" stroke="#8b9692" stroke-width="2"/><rect x="284" y="223" width="13" height="13" rx="2" fill="#faf4d8"/><rect x="321" y="209" width="41" height="41" rx="8" fill="url(#metal)" stroke="#8b9692" stroke-width="2"/><rect x="335" y="223" width="13" height="13" rx="2" fill="#faf4d8"/><rect x="219" y="260" width="41" height="41" rx="8" fill="url(#metal)" stroke="#8b9692" stroke-width="2"/><rect x="233" y="274" width="13" height="13" rx="2" fill="#faf4d8"/><rect x="270" y="260" width="41" height="41" rx="8" fill="url(#metal)" stroke="#8b9692" stroke-width="2"/><rect x="284" y="274" width="13" height="13" rx="2" fill="#faf4d8"/><rect x="321" y="260" width="41" height="41" rx="8" fill="url(#metal)" stroke="#8b9692" stroke-width="2"/><rect x="335" y="274" width="13" height="13" rx="2" fill="#faf4d8"/><path d="M221 148l133 159" stroke="#fff" stroke-width="12" opacity=".1"/><path d="M281 369v18h44v-18" fill="url(#dark)"/></svg>